<?xml version="1.0" encoding="UTF-8"?>
<svg width="14px" height="14px" viewBox="0 0 14 14" version="1.1" xmlns="http://www.w3.org/2000/svg" xmlns:xlink="http://www.w3.org/1999/xlink">
    <!-- Generator: Sketch 63.1 (92452) - https://sketch.com -->
    <title>Fill 1</title>
    <desc>Created with Sketch.</desc>
    <g id="页面-1" stroke="none" stroke-width="1" fill="none" fill-rule="evenodd">
        <g id="表单" transform="translate(-45.000000, -1971.000000)" fill="#0074FF">
            <g id="编组-10备份" transform="translate(30.000000, 1931.000000)">
                <g id="编组-5">
                    <g id="编组-5备份" transform="translate(0.000000, 22.000000)">
                        <g id="编组-14" transform="translate(15.000000, 18.000000)">
                            <path d="M6.81949139,6.47563036 C7.21055598,6.07898522 7.20776241,5.45047055 6.81949139,5.06079146 C6.43115053,4.67247414 5.80259776,4.6710949 5.40449687,5.06079146 L2.22122624,8.24243747 C1.24627104,9.22714537 1.24770275,10.8053981 2.22122624,11.7789324 C3.19480212,12.7523794 4.77315052,12.7551903 5.75791813,11.7789324 L11.7696937,5.76752129 C12.7460108,4.79119358 12.7460108,3.20737153 11.7696937,2.23104382 C10.7933068,1.25478595 9.20937127,1.25478595 8.23298437,2.23104382 L8.05702451,2.40842463 C7.76368242,2.70174894 7.28879334,2.70174894 6.99545125,2.40842463 C6.70354086,2.11653194 6.70210916,1.64167165 6.99545125,1.34691573 L7.17148095,1.16953492 C8.74006933,-0.3905607 11.2709895,-0.389129084 12.8298178,1.16953492 C14.3886636,2.72826876 14.3914572,5.25767368 12.8298178,6.82759857 L6.81805969,12.8389922 C5.25505845,14.3907076 2.7283112,14.3865525 1.17084471,12.8291804 C-0.386569397,11.2718782 -0.39072483,8.74526666 1.16108468,7.18236018 L4.34435531,3.99928255 C5.32627697,3.02295485 6.90747132,3.02574825 7.88099482,3.99928255 C8.85458815,4.97274703 8.85738172,6.55384551 7.88099482,7.53570764 L4.87375389,10.5414045 C4.5804118,10.8347288 4.10552271,10.8347288 3.81218062,10.5414045 C3.51883853,10.2480802 3.51883853,9.77321987 3.81218062,9.47989556 L6.81949139,6.47563036 Z" id="Fill-1"></path>
                        </g>
                    </g>
                </g>
            </g>
        </g>
    </g>
</svg>