<?xml version="1.0" encoding="UTF-8"?>
<svg width="14px" height="17px" viewBox="0 0 14 17" version="1.1" xmlns="http://www.w3.org/2000/svg" xmlns:xlink="http://www.w3.org/1999/xlink">
    <!-- Generator: Sketch 63.1 (92452) - https://sketch.com -->
    <title>形状结合</title>
    <desc>Created with Sketch.</desc>
    <g id="页面-1" stroke="none" stroke-width="1" fill="none" fill-rule="evenodd">
        <g id="查看页面" transform="translate(-45.000000, -1050.000000)" fill="#BECCE7">
            <g id="编组-14" transform="translate(30.000000, 1033.000000)">
                <path d="M23.5458744,17.0063543 C24.2029269,16.9969177 24.4745251,17.2320724 24.4231832,17.9187347 C24.3974664,18.3625365 24.3974664,18.8083062 24.4231832,19.2521318 C24.4048075,20.337144 25.2398361,21.2305091 26.2896382,21.2495007 L26.3502253,21.2495007 C26.981561,21.2741353 27.6165444,21.2721911 28.2496695,21.2532943 C28.7562521,21.23812 28.9837807,21.4429735 28.9803237,21.9892257 C28.9691673,25.365491 28.9893324,28.7398832 28.9654968,32.1142755 C29.0040376,33.1138846 28.2496695,33.9580043 27.2825696,33.9958927 C27.2053962,33.9996863 27.126548,33.9978369 27.0494893,33.990226 C25.2490584,34.0054241 23.4541105,33.990226 21.6555608,33.990226 C19.9083759,33.990226 18.7956727,33.9996863 17.050369,33.990226 C16.0262608,34.0964701 15.1141964,33.3244048 15.0113979,32.2660899 C15.0003862,32.1446715 14.998505,32.0213801 15.0095167,31.8999617 C15.0003862,27.6359742 15.0003862,23.3720105 15.0095167,19.108023 C14.9067411,18.0590499 15.6481935,17.123979 16.6631483,17.0177587 C16.7897824,17.00441 16.9163937,17.00441 17.0430279,17.0196081 C19.4234067,17.0082036 21.1655644,17.032933 23.5458744,17.0063543 Z M21.9999956,22.2377905 C21.6485422,22.2377905 21.3636329,22.5226998 21.3636329,22.8741533 L21.3636329,22.8741533 L21.3631766,24.8557905 L19.4729004,24.8566858 C19.1113064,24.8566858 18.8181766,25.1498156 18.8181766,25.5114096 C18.8181766,25.8730036 19.1113064,26.1661334 19.4729004,26.1661334 L19.4729004,26.1661334 L21.3631766,26.1657905 L21.3636329,28.1486659 C21.3636329,28.5001194 21.6485422,28.7850287 21.9999956,28.7850287 C22.3514491,28.7850287 22.6363584,28.5001194 22.6363584,28.1486659 L22.6363584,28.1486659 L22.6361766,26.1657905 L24.5270804,26.1661334 C24.8886744,26.1661334 25.1818043,25.8730036 25.1818043,25.5114096 C25.1818043,25.1498156 24.8886744,24.8566858 24.5270804,24.8566858 L24.5270804,24.8566858 L22.6361766,24.8557905 L22.6363584,22.8741533 C22.6363584,22.5226998 22.3514491,22.2377905 21.9999956,22.2377905 Z M26.2024583,17.1176949 C27.0973195,18.0283949 27.9920831,18.9391951 28.8752233,19.86193 C29.1071811,20.1061812 28.998013,20.2603081 28.6938777,20.2683147 C28.3741469,20.2802495 28.0505173,20.2683147 27.730884,20.2683147 L27.730884,20.2643114 L27.7288858,20.266263 C27.4092525,20.266263 27.0855985,20.2823012 26.7658677,20.2622597 C26.3409652,20.2882561 25.9646767,19.9840056 25.8867238,19.5536761 C25.8223683,18.7870197 25.802874,18.0184367 25.8301904,17.2498287 C25.8301904,16.9595396 26.0231352,16.9314915 26.2024583,17.1176949 Z" id="形状结合"></path>
            </g>
        </g>
    </g>
</svg>