<?xml version="1.0" encoding="UTF-8"?>
<svg width="15px" height="15px" viewBox="0 0 15 15" version="1.1" xmlns="http://www.w3.org/2000/svg" xmlns:xlink="http://www.w3.org/1999/xlink">
    <!-- Generator: Sketch 63.1 (92452) - https://sketch.com -->
    <title>形状结合</title>
    <desc>Created with Sketch.</desc>
    <g id="页面-1" stroke="none" stroke-width="1" fill="none" fill-rule="evenodd">
        <g id="查看页面" transform="translate(-320.000000, -1652.000000)" fill="#C8C8C8">
            <g id="编组-13" transform="translate(0.000000, 1548.000000)">
                <g id="编组-3" transform="translate(20.000000, 30.000000)">
                    <path d="M307.484321,74.0000296 C308.030014,74.004163 308.470528,74.447098 308.47167,74.9928051 L308.482,80.5120037 L314.022126,80.5010722 C314.561063,80.4999439 314.998872,80.9359238 315,81.4748604 L314.999974,81.4842989 L314.999974,81.4842989 C314.995838,82.0299941 314.552901,82.4705088 314.007191,82.4716513 L308.487,82.4820037 L308.49895,88.0221323 C308.500078,88.5610654 308.064101,88.9988716 307.525168,89 L307.515727,88.9999741 L307.515727,88.9999741 C306.970033,88.9958365 306.52952,88.5528995 306.528377,88.0071911 L306.517,82.4870037 L300.977923,82.4989312 C300.438959,82.5000597 300.001128,82.0640582 300,81.5250948 L300.000026,81.5157031 L300.000026,81.5157031 C300.004135,80.9700147 300.447059,80.5294916 300.992762,80.5283492 L306.512,80.5170037 L306.501098,74.9778786 C306.499969,74.4389416 306.935949,74.0011321 307.474886,74.0000037 L307.484321,74.0000296 L307.484321,74.0000296 Z" id="形状结合"></path>
                </g>
            </g>
        </g>
    </g>
</svg>