<?xml version="1.0" encoding="UTF-8"?>
<svg width="16px" height="16px" viewBox="0 0 16 16" version="1.1" xmlns="http://www.w3.org/2000/svg" xmlns:xlink="http://www.w3.org/1999/xlink">
    <!-- Generator: Sketch 63.1 (92452) - https://sketch.com -->
    <title>编组 22</title>
    <desc>Created with Sketch.</desc>
    <g id="页面-1" stroke="none" stroke-width="1" fill="none" fill-rule="evenodd">
        <g id="表单" transform="translate(-81.000000, -2182.000000)">
            <g id="编组-2" transform="translate(81.000000, 2182.000000)">
                <g id="编组-22">
                    <path d="M0,0 L10,0 C13.3137085,-6.08718376e-16 16,2.6862915 16,6 L16,16 L16,16 L6,16 C2.6862915,16 4.05812251e-16,13.3137085 0,10 L0,0 L0,0 Z" id="矩形" fill="#0074FF"></path>
                    <path d="M11.7717087,4.20292611 L11.7764592,4.20770271 C12.0497209,4.4851395 12.0484976,4.93091559 11.7737174,5.20684846 L8.99401033,7.99700146 L11.7950126,10.7869112 C12.0675206,11.0582801 12.068444,11.4991795 11.7970751,11.7716875 L11.7922972,11.7764393 C11.5148589,12.0497017 11.0690811,12.0484785 10.7931467,11.7736975 L8.00201033,8.99400146 L5.2130727,11.7950142 C4.9417036,12.0675217 4.50080453,12.0684445 4.22829707,11.7970754 L4.22354662,11.7922988 C3.95028495,11.514862 3.95150822,11.069086 4.22628843,10.7931531 L7.00501033,8.00200146 L4.20499698,5.2130866 C3.93248896,4.94171768 3.93156553,4.5008183 4.20293446,4.22831028 L4.20771237,4.22355852 C4.48515065,3.95029608 4.9309284,3.95151935 5.20686279,4.22630031 L7.99701033,7.00500146 L10.7869331,4.2049873 C11.0583022,3.93247984 11.4992013,3.93155701 11.7717087,4.20292611 Z" id="形状结合" fill="#FFFFFF"></path>
                </g>
            </g>
        </g>
    </g>
</svg>