<?xml version="1.0" encoding="UTF-8"?>
<svg width="23px" height="18px" viewBox="0 0 23 18" version="1.1" xmlns="http://www.w3.org/2000/svg" xmlns:xlink="http://www.w3.org/1999/xlink">
    <!-- Generator: Sketch 63.1 (92452) - https://sketch.com -->
    <title>Fill 1</title>
    <desc>Created with Sketch.</desc>
    <g id="页面-1" stroke="none" stroke-width="1" fill="none" fill-rule="evenodd">
        <g id="表单" transform="translate(-299.000000, -2206.000000)" fill="#C8C8C8">
            <path d="M318.729003,2213.54995 C318.179457,2213.54995 317.757864,2213.11251 317.757864,2212.59996 C317.757864,2212.06251 318.205025,2211.64994 318.729003,2211.64994 C319.278362,2211.64994 319.700105,2212.08752 319.700105,2212.59996 C319.700105,2213.11251 319.278362,2213.54995 318.729003,2213.54995 Z M310.5,2221.74993 C307.331201,2221.74993 304.737216,2219.23754 304.737216,2216.11244 C304.737216,2213.0125 307.305595,2210.47506 310.5,2210.47506 C313.668987,2210.47506 316.262821,2212.98749 316.262821,2216.11244 C316.262821,2219.23754 313.668987,2221.74993 310.5,2221.74993 Z M319.700105,2209.375 L318.000592,2209.375 C317.630061,2209.375 317.208318,2209.08749 317.080664,2208.73757 L316.377897,2206.63743 C316.250094,2206.27495 315.853956,2206 315.457819,2206 L305.810553,2206 C305.439984,2206 305.018428,2206.28755 304.890587,2206.63743 L304.18782,2208.73757 C304.060016,2209.10005 303.663879,2209.375 303.267742,2209.375 L301.300045,2209.375 C300.047731,2209.375 299,2210.39995 299,2211.62507 L299,2221.74993 C299,2222.97501 300.047731,2224 301.300045,2224 L319.700105,2224 C320.952269,2224 322,2222.97501 322,2221.74993 L322,2211.62507 C322,2210.39995 320.977874,2209.375 319.700105,2209.375 Z M310.5,2211.98755 C308.174499,2211.98755 306.28332,2213.8375 306.28332,2216.11244 C306.28332,2218.38752 308.174499,2220.23744 310.5,2220.23744 C312.82565,2220.23744 314.716718,2218.38752 314.716718,2216.11244 C314.716718,2213.86251 312.82565,2211.98755 310.5,2211.98755 Z" id="Fill-1"></path>
        </g>
    </g>
</svg>